<?xml version="1.0" encoding="UTF-8" standalone="no"?>
<!DOCTYPE svg PUBLIC "-//W3C//DTD SVG 1.1//EN" "http://www.w3.org/Graphics/SVG/1.1/DTD/svg11.dtd">
<svg xmlns="http://www.w3.org/2000/svg" version="1.1" viewBox="0.00 0.00 1024.00 1024.00">
<path fill="#FFBE98" d="
  M 579.66 517.17
  Q 567.83 525.35 539.06 546.01
  C 533.57 549.95 527.57 553.76 521.77 557.52
  Q 498.39 572.71 472.55 561.46
  Q 470.04 560.37 463.80 556.43
  Q 460.15 554.11 455.47 550.76
  Q 406.52 515.75 360.41 482.60
  Q 356.60 479.86 352.78 476.32
  C 344.77 468.90 343.27 457.28 346.86 447.42
  C 350.62 437.09 359.17 429.20 369.46 426.17
  Q 373.45 425.00 381.64 424.95
  Q 392.38 424.88 404.75 424.89
  Q 500.89 425.02 604.51 424.99
  C 616.34 424.98 626.48 427.32 634.98 435.86
  C 646.13 447.06 648.07 463.02 636.84 475.06
  Q 633.53 478.61 627.05 483.29
  Q 616.59 490.84 607.58 497.17
  C 599.95 502.53 589.03 510.70 579.66 517.17
  Z"
/>
<path fill="#ffffff" d="
  M 562.38 439.83
  C 578.33 439.88 594.17 439.49 610.00 439.78
  C 619.50 439.94 630.03 447.90 629.17 458.30
  Q 628.81 462.49 624.27 465.97
  C 612.13 475.27 600.43 483.06 588.39 491.68
  Q 552.42 517.42 515.26 543.51
  Q 494.82 557.86 473.87 544.43
  Q 469.60 541.70 458.88 534.10
  Q 413.47 501.95 366.07 466.92
  C 363.42 464.96 360.42 462.03 360.28 458.50
  Q 359.87 448.06 369.72 442.17
  C 374.71 439.20 380.22 439.52 386.00 439.53
  Q 472.84 439.60 562.38 439.83
  Z"
/>
<path fill="#FFBE98" d="
  M 644.39 572.96
  Q 643.63 571.88 643.72 570.55
  Q 643.73 570.33 643.52 570.31
  L 643.51 570.31
  Q 643.30 570.29 643.27 570.50
  Q 643.11 571.82 642.15 573.15
  A 0.02 0.02 0.0 0 1 642.12 573.14
  L 642.10 572.84
  Q 642.08 572.47 641.73 572.59
  L 641.21 572.77
  Q 640.71 572.94 640.34 572.56
  Q 639.49 571.65 638.39 572.08
  Q 637.71 572.34 637.77 571.62
  Q 637.78 571.46 637.62 571.34
  Q 637.34 571.13 637.17 571.44
  Q 636.79 572.17 635.82 571.71
  Q 634.55 571.11 633.29 570.47
  Q 632.86 570.26 632.73 569.80
  Q 632.37 568.62 631.08 568.62
  Q 630.72 568.62 630.76 568.26
  Q 630.82 567.73 630.55 567.26
  Q 630.17 566.61 630.20 567.36
  Q 630.21 567.84 629.94 568.20
  Q 629.65 568.57 629.64 569.06
  Q 629.63 572.57 629.63 575.87
  Q 629.63 575.88 629.63 575.88
  Q 629.63 575.88 629.63 575.88
  Q 628.89 553.43 629.14 530.96
  Q 629.45 529.44 629.31 529.21
  Q 628.59 528.09 627.51 528.87
  L 583.56 560.29
  Q 583.57 557.89 583.17 555.61
  Q 583.10 555.24 582.86 554.99
  Q 582.53 554.66 582.05 554.64
  Q 581.65 554.62 581.67 554.23
  Q 581.70 553.43 580.99 553.05
  A 1.01 1.00 -80.3 0 1 580.46 552.29
  Q 580.38 551.59 579.87 551.23
  Q 578.51 550.26 577.41 549.07
  A 0.59 0.58 23.8 0 1 577.25 548.67
  Q 577.24 548.26 576.92 548.24
  Q 576.39 548.20 576.61 547.69
  Q 576.89 547.03 576.28 546.39
  Q 599.73 529.66 623.22 512.96
  C 626.87 510.36 630.16 507.28 634.08 505.12
  Q 639.24 502.27 642.53 506.52
  Q 644.17 508.63 644.19 511.25
  Q 644.42 542.10 644.39 572.96
  Z"
/>
<path fill="#FFBE98" d="
  M 439.31 566.39
  Q 439.30 567.20 440.18 567.66
  Q 440.91 568.05 440.08 568.12
  Q 439.21 568.19 438.39 567.97
  A 1.07 1.03 37.8 0 0 437.65 568.05
  Q 436.84 568.46 435.94 568.37
  Q 435.51 568.33 435.22 568.65
  Q 433.99 569.98 432.38 570.98
  Q 431.96 571.24 431.91 571.73
  Q 431.85 572.30 431.25 572.39
  Q 431.10 572.41 431.12 572.26
  Q 431.13 572.14 431.01 572.03
  Q 430.86 571.90 430.70 572.01
  Q 430.04 572.51 430.60 573.42
  Q 430.80 573.74 431.03 573.44
  Q 431.17 573.26 431.33 573.53
  A 0.43 0.43 0.0 0 1 430.97 574.17
  L 428.12 574.25
  A 0.04 0.04 0.0 0 1 428.10 574.17
  Q 428.23 574.10 428.38 574.11
  Q 429.03 574.13 428.62 573.62
  Q 428.13 573.02 427.68 572.46
  Q 427.19 571.86 427.12 572.63
  Q 427.09 572.94 427.15 573.23
  Q 427.19 573.44 427.04 573.29
  Q 426.94 573.20 426.80 573.15
  Q 426.72 573.13 426.65 573.17
  L 424.65 574.41
  Q 399.03 556.55 373.57 538.30
  C 369.77 535.57 366.35 532.34 362.48 529.77
  A 0.70 0.69 -73.1 0 0 361.40 530.35
  L 361.45 578.43
  Q 360.84 582.22 361.19 586.13
  Q 361.27 586.13 361.15 586.13
  Q 361.06 586.13 361.10 586.04
  Q 361.20 585.79 361.04 585.58
  Q 360.74 585.18 360.40 585.56
  Q 359.41 586.69 358.00 587.56
  Q 357.08 588.13 356.44 589.19
  Q 355.82 590.24 355.06 591.04
  Q 354.80 591.33 354.61 591.66
  Q 353.93 592.88 352.72 592.11
  Q 352.37 591.89 352.11 592.22
  Q 351.65 592.82 350.89 592.61
  Q 350.31 592.46 349.90 592.91
  Q 348.64 594.31 347.57 593.63
  A 1.00 0.99 -75.9 0 0 346.04 594.55
  Q 346.33 598.17 345.32 598.79
  Q 345.19 595.24 345.21 592.50
  Q 345.55 552.48 345.35 512.58
  C 345.33 508.80 346.10 505.91 349.76 504.71
  C 352.92 503.68 356.61 506.32 359.03 508.19
  Q 362.51 510.88 366.46 513.75
  Q 397.00 535.91 427.65 557.92
  Q 433.55 562.15 439.31 566.39
  Z"
/>
<path fill="#ffffff" d="
  M 629.14 530.96
  Q 629.05 556.44 629.04 581.92
  C 629.03 587.99 629.55 594.38 628.92 600.25
  C 627.94 609.36 619.61 617.44 609.89 615.57
  Q 603.53 614.34 598.35 610.56
  Q 578.16 595.82 557.00 581.28
  Q 556.27 580.79 557.61 578.71
  A 2.09 2.05 -2.0 0 1 558.17 578.12
  L 583.56 560.29
  L 627.51 528.87
  Q 628.59 528.09 629.31 529.21
  Q 629.45 529.44 629.14 530.96
  Z"
/>
<path fill="#ffffff" d="
  M 424.65 574.41
  L 432.12 580.59
  Q 433.17 581.45 431.90 581.94
  Q 430.60 582.44 429.68 583.07
  Q 412.95 594.65 397.96 605.01
  C 389.77 610.68 379.39 619.71 369.35 613.16
  Q 364.47 609.97 362.47 603.45
  Q 361.54 600.43 361.50 592.85
  Q 361.47 585.66 361.45 578.43
  L 361.40 530.35
  A 0.70 0.69 -73.1 0 1 362.48 529.77
  C 366.35 532.34 369.77 535.57 373.57 538.30
  Q 399.03 556.55 424.65 574.41
  Z"
/>
<path fill="#FFBE98" d="
  M 629.14 530.96
  Q 628.89 553.43 629.63 575.88
  Q 629.63 575.88 629.63 575.88
  Q 629.63 575.88 629.63 575.87
  Q 629.63 572.57 629.64 569.06
  Q 629.65 568.57 629.94 568.20
  Q 630.21 567.84 630.20 567.36
  Q 630.17 566.61 630.55 567.26
  Q 630.82 567.73 630.76 568.26
  Q 630.72 568.62 631.08 568.62
  Q 632.37 568.62 632.73 569.80
  Q 632.86 570.26 633.29 570.47
  Q 634.55 571.11 635.82 571.71
  Q 636.79 572.17 637.17 571.44
  Q 637.34 571.13 637.62 571.34
  Q 637.78 571.46 637.77 571.62
  Q 637.71 572.34 638.39 572.08
  Q 639.49 571.65 640.34 572.56
  Q 640.71 572.94 641.21 572.77
  L 641.73 572.59
  Q 642.08 572.47 642.10 572.84
  L 642.12 573.14
  A 0.02 0.02 0.0 0 0 642.15 573.15
  Q 643.11 571.82 643.27 570.50
  Q 643.30 570.29 643.51 570.31
  L 643.52 570.31
  Q 643.73 570.33 643.72 570.55
  Q 643.63 571.88 644.39 572.96
  Q 644.37 584.98 644.33 597.00
  Q 644.30 606.65 641.04 612.93
  Q 633.86 626.78 619.48 630.27
  Q 605.78 633.59 592.66 624.67
  C 575.51 613.01 560.19 601.72 543.01 590.46
  A 1.50 1.49 43.6 0 0 541.32 590.50
  C 530.09 598.56 519.42 605.05 505.51 607.04
  Q 483.71 610.17 466.13 602.23
  C 459.68 599.31 453.52 595.12 447.66 591.08
  A 1.98 1.98 0.0 0 0 445.42 591.08
  Q 425.74 604.48 406.09 618.39
  C 394.73 626.43 384.21 633.87 369.61 629.88
  C 361.72 627.72 354.85 622.05 350.55 615.50
  Q 345.48 607.80 345.32 598.79
  Q 346.33 598.17 346.04 594.55
  A 1.00 0.99 -75.9 0 1 347.57 593.63
  Q 348.64 594.31 349.90 592.91
  Q 350.31 592.46 350.89 592.61
  Q 351.65 592.82 352.11 592.22
  Q 352.37 591.89 352.72 592.11
  Q 353.93 592.88 354.61 591.66
  Q 354.80 591.33 355.06 591.04
  Q 355.82 590.24 356.44 589.19
  Q 357.08 588.13 358.00 587.56
  Q 359.41 586.69 360.40 585.56
  Q 360.74 585.18 361.04 585.58
  Q 361.20 585.79 361.10 586.04
  Q 361.06 586.13 361.15 586.13
  Q 361.27 586.13 361.19 586.13
  Q 360.84 582.22 361.45 578.43
  Q 361.47 585.66 361.50 592.85
  Q 361.54 600.43 362.47 603.45
  Q 364.47 609.97 369.35 613.16
  C 379.39 619.71 389.77 610.68 397.96 605.01
  Q 412.95 594.65 429.68 583.07
  Q 430.60 582.44 431.90 581.94
  Q 433.17 581.45 432.12 580.59
  L 424.65 574.41
  L 426.65 573.17
  Q 426.72 573.13 426.80 573.15
  Q 426.94 573.20 427.04 573.29
  Q 427.19 573.44 427.15 573.23
  Q 427.09 572.94 427.12 572.63
  Q 427.19 571.86 427.68 572.46
  Q 428.13 573.02 428.62 573.62
  Q 429.03 574.13 428.38 574.11
  Q 428.23 574.10 428.10 574.17
  A 0.04 0.04 0.0 0 0 428.12 574.25
  L 430.97 574.17
  A 0.43 0.43 0.0 0 0 431.33 573.53
  Q 431.17 573.26 431.03 573.44
  Q 430.80 573.74 430.60 573.42
  Q 430.04 572.51 430.70 572.01
  Q 430.86 571.90 431.01 572.03
  Q 431.13 572.14 431.12 572.26
  Q 431.10 572.41 431.25 572.39
  Q 431.85 572.30 431.91 571.73
  Q 431.96 571.24 432.38 570.98
  Q 433.99 569.98 435.22 568.65
  Q 435.51 568.33 435.94 568.37
  Q 436.84 568.46 437.65 568.05
  A 1.07 1.03 37.8 0 1 438.39 567.97
  Q 439.21 568.19 440.08 568.12
  Q 440.91 568.05 440.18 567.66
  Q 439.30 567.20 439.31 566.39
  Q 449.38 573.52 459.31 580.69
  C 472.23 590.00 488.19 594.83 504.07 591.78
  Q 515.00 589.68 525.33 582.52
  Q 550.99 564.74 576.28 546.39
  Q 576.89 547.03 576.61 547.69
  Q 576.39 548.20 576.92 548.24
  Q 577.24 548.26 577.25 548.67
  A 0.59 0.58 23.8 0 0 577.41 549.07
  Q 578.51 550.26 579.87 551.23
  Q 580.38 551.59 580.46 552.29
  A 1.01 1.00 -80.3 0 0 580.99 553.05
  Q 581.70 553.43 581.67 554.23
  Q 581.65 554.62 582.05 554.64
  Q 582.53 554.66 582.86 554.99
  Q 583.10 555.24 583.17 555.61
  Q 583.57 557.89 583.56 560.29
  L 558.17 578.12
  A 2.09 2.05 -2.0 0 0 557.61 578.71
  Q 556.27 580.79 557.00 581.28
  Q 578.16 595.82 598.35 610.56
  Q 603.53 614.34 609.89 615.57
  C 619.61 617.44 627.94 609.36 628.92 600.25
  C 629.55 594.38 629.03 587.99 629.04 581.92
  Q 629.05 556.44 629.14 530.96
  Z"
/>
</svg>
